<svg xmlns="http://www.w3.org/2000/svg" xmlns:xlink="http://www.w3.org/1999/xlink" width="270" zoomAndPan="magnify" viewBox="0 0 202.5 44.999999" height="60" preserveAspectRatio="xMidYMid meet" version="1.0"><defs><g/><clipPath id="95caa8013b"><rect x="0" width="128" y="0" height="34"/></clipPath></defs><path fill="#032e2e" d="M 51.601562 11.753906 C 52.027344 11.71875 52.738281 11.734375 53.183594 11.734375 L 55.949219 11.734375 C 57.539062 11.734375 59.109375 11.714844 60.71875 11.765625 C 61.9375 11.804688 62.863281 12.753906 62.730469 14.007812 C 62.699219 14.304688 62.535156 14.671875 62.386719 14.941406 C 61.664062 16.25 60.90625 17.546875 60.160156 18.84375 L 55.636719 26.660156 L 51.660156 33.453125 C 50.742188 35.027344 49.851562 36.601562 48.871094 38.144531 C 48.09375 39.371094 47.167969 39.957031 45.710938 40.09375 C 44.601562 40.199219 43.476562 40.15625 42.359375 40.15625 L 32.488281 40.15625 C 29.816406 40.167969 28.378906 40.46875 26.6875 38.035156 C 25.457031 36.070312 24.34375 33.984375 23.167969 31.976562 C 22.464844 30.691406 21.59375 29.480469 21.003906 28.136719 C 20.394531 26.75 21.378906 25.523438 22.808594 25.460938 C 23.847656 25.414062 24.871094 25.453125 25.90625 25.449219 L 29.886719 25.429688 C 34.21875 25.414062 33.679688 25.457031 35.832031 29.222656 C 36.5625 30.511719 37.304688 31.792969 38.058594 33.066406 C 41.019531 28.082031 43.871094 23.003906 46.789062 17.988281 C 47.386719 16.953125 47.976562 15.910156 48.550781 14.859375 C 49.300781 13.492188 49.847656 11.9375 51.601562 11.753906 Z M 51.601562 11.753906 " fill-opacity="1" fill-rule="nonzero"/><path fill="#3bbf6b" d="M 17.613281 4.625 C 17.886719 4.578125 19.269531 4.589844 19.625 4.589844 L 23.949219 4.597656 L 29.714844 4.601562 C 30.675781 4.601562 31.644531 4.585938 32.605469 4.613281 C 35.179688 4.675781 35.914062 6.222656 37.035156 8.160156 L 39.160156 11.816406 C 39.667969 12.683594 40.183594 13.542969 40.707031 14.402344 C 41.136719 15.101562 41.789062 16.039062 41.996094 16.773438 C 42.398438 18.339844 41.226562 19.273438 39.761719 19.261719 C 36.632812 19.234375 33.515625 19.296875 30.390625 19.207031 C 29.132812 19.171875 28.539062 17.789062 27.964844 16.820312 C 27.386719 15.84375 26.820312 14.859375 26.269531 13.867188 C 25.949219 13.296875 25.386719 12.410156 25.15625 11.820312 L 20.019531 20.757812 L 15.425781 28.78125 C 14.957031 29.589844 13.699219 31.925781 13.160156 32.46875 C 12.886719 32.75 12.53125 32.945312 12.144531 33.023438 C 11.339844 33.191406 9.066406 33.113281 8.136719 33.117188 C 6.363281 33.105469 4.585938 33.125 2.8125 33.128906 C 2.484375 33.128906 2.167969 33.097656 1.851562 33.011719 C 1.019531 32.785156 0.441406 31.992188 0.46875 31.128906 C 0.484375 30.796875 0.570312 30.472656 0.726562 30.179688 C 1.035156 29.59375 1.472656 28.902344 1.816406 28.324219 C 2.429688 27.300781 3.03125 26.273438 3.621094 25.238281 L 9.980469 14.210938 L 12.523438 9.722656 C 13.082031 8.734375 13.609375 7.734375 14.203125 6.761719 C 15.0625 5.367188 16.007812 4.820312 17.613281 4.625 Z M 17.613281 4.625 " fill-opacity="1" fill-rule="nonzero"/><g transform="matrix(1, 0, 0, 1, 74, 7)"><g clip-path="url(#95caa8013b)"><g fill="#000000" fill-opacity="1"><g transform="translate(0.379849, 26.356044)"><g><path d="M 0.984375 -6.375 L 4.84375 -6.75 C 5.070312 -5.457031 5.539062 -4.507812 6.25 -3.90625 C 6.957031 -3.300781 7.910156 -3 9.109375 -3 C 10.378906 -3 11.335938 -3.265625 11.984375 -3.796875 C 12.628906 -4.335938 12.953125 -4.96875 12.953125 -5.6875 C 12.953125 -6.15625 12.816406 -6.550781 12.546875 -6.875 C 12.273438 -7.195312 11.800781 -7.476562 11.125 -7.71875 C 10.664062 -7.882812 9.613281 -8.171875 7.96875 -8.578125 C 5.84375 -9.097656 4.351562 -9.742188 3.5 -10.515625 C 2.300781 -11.585938 1.703125 -12.898438 1.703125 -14.453125 C 1.703125 -15.453125 1.984375 -16.382812 2.546875 -17.25 C 3.109375 -18.125 3.921875 -18.785156 4.984375 -19.234375 C 6.054688 -19.691406 7.34375 -19.921875 8.84375 -19.921875 C 11.300781 -19.921875 13.148438 -19.378906 14.390625 -18.296875 C 15.640625 -17.222656 16.289062 -15.785156 16.34375 -13.984375 L 12.390625 -13.8125 C 12.222656 -14.820312 11.859375 -15.546875 11.296875 -15.984375 C 10.742188 -16.421875 9.910156 -16.640625 8.796875 -16.640625 C 7.648438 -16.640625 6.753906 -16.40625 6.109375 -15.9375 C 5.691406 -15.632812 5.484375 -15.226562 5.484375 -14.71875 C 5.484375 -14.257812 5.675781 -13.863281 6.0625 -13.53125 C 6.5625 -13.113281 7.769531 -12.675781 9.6875 -12.21875 C 11.613281 -11.769531 13.035156 -11.300781 13.953125 -10.8125 C 14.878906 -10.332031 15.601562 -9.671875 16.125 -8.828125 C 16.644531 -7.984375 16.90625 -6.941406 16.90625 -5.703125 C 16.90625 -4.578125 16.59375 -3.523438 15.96875 -2.546875 C 15.351562 -1.566406 14.472656 -0.835938 13.328125 -0.359375 C 12.191406 0.109375 10.773438 0.34375 9.078125 0.34375 C 6.597656 0.34375 4.691406 -0.226562 3.359375 -1.375 C 2.035156 -2.519531 1.242188 -4.1875 0.984375 -6.375 Z M 0.984375 -6.375 "/></g></g></g><g fill="#000000" fill-opacity="1"><g transform="translate(19.444156, 26.356044)"><g><path d="M 0.1875 -14.1875 L 4.1875 -14.1875 L 7.578125 -4.109375 L 10.890625 -14.1875 L 14.78125 -14.1875 L 9.765625 -0.53125 L 8.875 1.9375 C 8.539062 2.757812 8.222656 3.390625 7.921875 3.828125 C 7.628906 4.265625 7.285156 4.617188 6.890625 4.890625 C 6.503906 5.160156 6.03125 5.367188 5.46875 5.515625 C 4.90625 5.671875 4.265625 5.75 3.546875 5.75 C 2.828125 5.75 2.117188 5.675781 1.421875 5.53125 L 1.09375 2.59375 C 1.6875 2.707031 2.21875 2.765625 2.6875 2.765625 C 3.5625 2.765625 4.207031 2.507812 4.625 2 C 5.039062 1.488281 5.359375 0.835938 5.578125 0.046875 Z M 0.1875 -14.1875 "/></g></g></g><g fill="#000000" fill-opacity="1"><g transform="translate(35.476828, 26.356044)"><g><path d="M 14.875 0 L 11.109375 0 L 11.109375 -7.234375 C 11.109375 -8.765625 11.03125 -9.753906 10.875 -10.203125 C 10.71875 -10.660156 10.457031 -11.015625 10.09375 -11.265625 C 9.726562 -11.515625 9.296875 -11.640625 8.796875 -11.640625 C 8.140625 -11.640625 7.550781 -11.457031 7.03125 -11.09375 C 6.519531 -10.738281 6.164062 -10.265625 5.96875 -9.671875 C 5.78125 -9.085938 5.6875 -8.003906 5.6875 -6.421875 L 5.6875 0 L 1.9375 0 L 1.9375 -14.1875 L 5.421875 -14.1875 L 5.421875 -12.109375 C 6.660156 -13.710938 8.21875 -14.515625 10.09375 -14.515625 C 10.925781 -14.515625 11.6875 -14.363281 12.375 -14.0625 C 13.0625 -13.757812 13.578125 -13.375 13.921875 -12.90625 C 14.273438 -12.445312 14.519531 -11.921875 14.65625 -11.328125 C 14.800781 -10.742188 14.875 -9.90625 14.875 -8.8125 Z M 14.875 0 "/></g></g></g><g fill="#000000" fill-opacity="1"><g transform="translate(53.005293, 26.356044)"><g><path d="M 14.328125 -10 L 10.640625 -9.328125 C 10.515625 -10.066406 10.226562 -10.625 9.78125 -11 C 9.34375 -11.375 8.769531 -11.5625 8.0625 -11.5625 C 7.132812 -11.5625 6.390625 -11.238281 5.828125 -10.59375 C 5.273438 -9.945312 5 -8.863281 5 -7.34375 C 5 -5.664062 5.28125 -4.476562 5.84375 -3.78125 C 6.40625 -3.082031 7.164062 -2.734375 8.125 -2.734375 C 8.832031 -2.734375 9.410156 -2.9375 9.859375 -3.34375 C 10.316406 -3.75 10.640625 -4.445312 10.828125 -5.4375 L 14.515625 -4.8125 C 14.140625 -3.113281 13.40625 -1.832031 12.3125 -0.96875 C 11.226562 -0.101562 9.773438 0.328125 7.953125 0.328125 C 5.878906 0.328125 4.222656 -0.328125 2.984375 -1.640625 C 1.753906 -2.953125 1.140625 -4.765625 1.140625 -7.078125 C 1.140625 -9.421875 1.753906 -11.242188 2.984375 -12.546875 C 4.222656 -13.859375 5.898438 -14.515625 8.015625 -14.515625 C 9.742188 -14.515625 11.117188 -14.140625 12.140625 -13.390625 C 13.160156 -12.648438 13.890625 -11.519531 14.328125 -10 Z M 14.328125 -10 "/></g></g></g><g fill="#000000" fill-opacity="1"><g transform="translate(69.037966, 26.356044)"><g><path d="M 0.984375 -6.375 L 4.84375 -6.75 C 5.070312 -5.457031 5.539062 -4.507812 6.25 -3.90625 C 6.957031 -3.300781 7.910156 -3 9.109375 -3 C 10.378906 -3 11.335938 -3.265625 11.984375 -3.796875 C 12.628906 -4.335938 12.953125 -4.96875 12.953125 -5.6875 C 12.953125 -6.15625 12.816406 -6.550781 12.546875 -6.875 C 12.273438 -7.195312 11.800781 -7.476562 11.125 -7.71875 C 10.664062 -7.882812 9.613281 -8.171875 7.96875 -8.578125 C 5.84375 -9.097656 4.351562 -9.742188 3.5 -10.515625 C 2.300781 -11.585938 1.703125 -12.898438 1.703125 -14.453125 C 1.703125 -15.453125 1.984375 -16.382812 2.546875 -17.25 C 3.109375 -18.125 3.921875 -18.785156 4.984375 -19.234375 C 6.054688 -19.691406 7.34375 -19.921875 8.84375 -19.921875 C 11.300781 -19.921875 13.148438 -19.378906 14.390625 -18.296875 C 15.640625 -17.222656 16.289062 -15.785156 16.34375 -13.984375 L 12.390625 -13.8125 C 12.222656 -14.820312 11.859375 -15.546875 11.296875 -15.984375 C 10.742188 -16.421875 9.910156 -16.640625 8.796875 -16.640625 C 7.648438 -16.640625 6.753906 -16.40625 6.109375 -15.9375 C 5.691406 -15.632812 5.484375 -15.226562 5.484375 -14.71875 C 5.484375 -14.257812 5.675781 -13.863281 6.0625 -13.53125 C 6.5625 -13.113281 7.769531 -12.675781 9.6875 -12.21875 C 11.613281 -11.769531 13.035156 -11.300781 13.953125 -10.8125 C 14.878906 -10.332031 15.601562 -9.671875 16.125 -8.828125 C 16.644531 -7.984375 16.90625 -6.941406 16.90625 -5.703125 C 16.90625 -4.578125 16.59375 -3.523438 15.96875 -2.546875 C 15.351562 -1.566406 14.472656 -0.835938 13.328125 -0.359375 C 12.191406 0.109375 10.773438 0.34375 9.078125 0.34375 C 6.597656 0.34375 4.691406 -0.226562 3.359375 -1.375 C 2.035156 -2.519531 1.242188 -4.1875 0.984375 -6.375 Z M 0.984375 -6.375 "/></g></g></g><g fill="#000000" fill-opacity="1"><g transform="translate(88.102272, 26.356044)"><g><path d="M 1.828125 0 L 1.828125 -19.578125 L 5.578125 -19.578125 L 5.578125 -9.1875 L 9.984375 -14.1875 L 14.59375 -14.1875 L 9.75 -9 L 14.953125 0 L 10.90625 0 L 7.328125 -6.375 L 5.578125 -4.546875 L 5.578125 0 Z M 1.828125 0 "/></g></g></g><g fill="#000000" fill-opacity="1"><g transform="translate(104.134945, 26.356044)"><g><path d="M 1.96875 -16.109375 L 1.96875 -19.578125 L 5.71875 -19.578125 L 5.71875 -16.109375 Z M 1.96875 0 L 1.96875 -14.1875 L 5.71875 -14.1875 L 5.71875 0 Z M 1.96875 0 "/></g></g></g><g fill="#000000" fill-opacity="1"><g transform="translate(112.555102, 26.356044)"><g><path d="M 1.96875 0 L 1.96875 -19.578125 L 5.71875 -19.578125 L 5.71875 0 Z M 1.96875 0 "/></g></g></g><g fill="#000000" fill-opacity="1"><g transform="translate(120.97526, 26.356044)"><g><path d="M 1.96875 0 L 1.96875 -19.578125 L 5.71875 -19.578125 L 5.71875 0 Z M 1.96875 0 "/></g></g></g></g></g></svg>