<svg xmlns="http://www.w3.org/2000/svg" xmlns:xlink="http://www.w3.org/1999/xlink" width="250" zoomAndPan="magnify" viewBox="0 0 187.5 37.5" height="50" preserveAspectRatio="xMidYMid meet" version="1.0"><defs><g/><clipPath id="9d2f42de5c"><rect x="0" width="113" y="0" height="29"/></clipPath></defs><path fill="#032e2e" d="M 51.019531 9.671875 C 51.382812 9.640625 51.992188 9.65625 52.371094 9.65625 L 54.726562 9.65625 C 56.085938 9.65625 57.425781 9.636719 58.796875 9.683594 C 59.839844 9.714844 60.632812 10.523438 60.515625 11.59375 C 60.488281 11.847656 60.347656 12.164062 60.222656 12.390625 C 59.605469 13.507812 58.957031 14.613281 58.320312 15.71875 L 54.460938 22.390625 L 51.066406 28.1875 C 50.285156 29.535156 49.523438 30.875 48.6875 32.191406 C 48.027344 33.238281 47.234375 33.738281 45.992188 33.855469 C 45.046875 33.945312 44.085938 33.90625 43.132812 33.910156 L 34.710938 33.910156 C 32.425781 33.917969 31.203125 34.175781 29.757812 32.097656 C 28.707031 30.421875 27.757812 28.644531 26.753906 26.929688 C 26.15625 25.832031 25.414062 24.796875 24.910156 23.652344 C 24.386719 22.46875 25.226562 21.421875 26.449219 21.367188 C 27.335938 21.328125 28.210938 21.363281 29.089844 21.359375 L 32.488281 21.34375 C 36.183594 21.332031 35.722656 21.363281 37.5625 24.578125 C 38.183594 25.679688 38.816406 26.773438 39.464844 27.859375 C 41.988281 23.605469 44.421875 19.273438 46.910156 14.992188 C 47.421875 14.109375 47.925781 13.21875 48.414062 12.320312 C 49.054688 11.15625 49.523438 9.828125 51.019531 9.671875 Z M 51.019531 9.671875 " fill-opacity="1" fill-rule="nonzero"/><path fill="#3bbf6b" d="M 22.015625 3.585938 C 22.25 3.546875 23.429688 3.558594 23.734375 3.558594 L 27.421875 3.566406 L 32.34375 3.570312 C 33.160156 3.570312 33.988281 3.554688 34.808594 3.578125 C 37.003906 3.632812 37.628906 4.953125 38.589844 6.605469 L 40.402344 9.722656 C 40.835938 10.464844 41.273438 11.199219 41.722656 11.929688 C 42.089844 12.527344 42.648438 13.328125 42.824219 13.953125 C 43.164062 15.292969 42.167969 16.089844 40.917969 16.078125 C 38.246094 16.054688 35.585938 16.105469 32.917969 16.03125 C 31.847656 16 31.339844 14.824219 30.851562 13.996094 C 30.355469 13.164062 29.875 12.324219 29.402344 11.476562 C 29.128906 10.988281 28.648438 10.230469 28.453125 9.730469 L 24.066406 17.355469 L 20.148438 24.203125 C 19.75 24.890625 18.675781 26.886719 18.214844 27.347656 C 17.980469 27.589844 17.679688 27.753906 17.347656 27.820312 C 16.664062 27.964844 14.722656 27.898438 13.929688 27.902344 C 12.414062 27.890625 10.898438 27.910156 9.386719 27.914062 C 9.105469 27.914062 8.835938 27.886719 8.5625 27.8125 C 7.855469 27.617188 7.363281 26.941406 7.386719 26.207031 C 7.398438 25.921875 7.472656 25.644531 7.605469 25.394531 C 7.867188 24.894531 8.242188 24.304688 8.535156 23.8125 C 9.058594 22.9375 9.570312 22.0625 10.074219 21.179688 L 15.5 11.769531 L 17.671875 7.9375 C 18.148438 7.09375 18.597656 6.242188 19.105469 5.414062 C 19.835938 4.21875 20.648438 3.753906 22.015625 3.585938 Z M 22.015625 3.585938 " fill-opacity="1" fill-rule="nonzero"/><g transform="matrix(1, 0, 0, 1, 70, 5)"><g clip-path="url(#9d2f42de5c)"><g fill="#000000" fill-opacity="1"><g transform="translate(0.331783, 22.993215)"><g><path d="M 0.84375 -5.4375 L 4.125 -5.75 C 4.320312 -4.644531 4.71875 -3.832031 5.3125 -3.3125 C 5.914062 -2.800781 6.734375 -2.546875 7.765625 -2.546875 C 8.847656 -2.546875 9.664062 -2.773438 10.21875 -3.234375 C 10.769531 -3.691406 11.046875 -4.226562 11.046875 -4.84375 C 11.046875 -5.238281 10.925781 -5.570312 10.6875 -5.84375 C 10.457031 -6.125 10.054688 -6.367188 9.484375 -6.578125 C 9.085938 -6.710938 8.1875 -6.957031 6.78125 -7.3125 C 4.976562 -7.757812 3.710938 -8.304688 2.984375 -8.953125 C 1.960938 -9.867188 1.453125 -10.988281 1.453125 -12.3125 C 1.453125 -13.164062 1.691406 -13.960938 2.171875 -14.703125 C 2.648438 -15.441406 3.34375 -16.003906 4.25 -16.390625 C 5.15625 -16.773438 6.25 -16.96875 7.53125 -16.96875 C 9.625 -16.96875 11.203125 -16.507812 12.265625 -15.59375 C 13.328125 -14.675781 13.882812 -13.453125 13.9375 -11.921875 L 10.5625 -11.765625 C 10.414062 -12.628906 10.101562 -13.25 9.625 -13.625 C 9.15625 -14 8.445312 -14.1875 7.5 -14.1875 C 6.519531 -14.1875 5.753906 -13.984375 5.203125 -13.578125 C 4.847656 -13.316406 4.671875 -12.972656 4.671875 -12.546875 C 4.671875 -12.148438 4.835938 -11.8125 5.171875 -11.53125 C 5.597656 -11.175781 6.628906 -10.800781 8.265625 -10.40625 C 9.898438 -10.019531 11.109375 -9.617188 11.890625 -9.203125 C 12.679688 -8.796875 13.296875 -8.234375 13.734375 -7.515625 C 14.179688 -6.796875 14.40625 -5.910156 14.40625 -4.859375 C 14.40625 -3.898438 14.140625 -3.003906 13.609375 -2.171875 C 13.078125 -1.335938 12.328125 -0.71875 11.359375 -0.3125 C 10.390625 0.09375 9.179688 0.296875 7.734375 0.296875 C 5.617188 0.296875 3.992188 -0.1875 2.859375 -1.15625 C 1.734375 -2.132812 1.0625 -3.5625 0.84375 -5.4375 Z M 0.84375 -5.4375 "/></g></g></g><g fill="#000000" fill-opacity="1"><g transform="translate(16.575065, 22.993215)"><g><path d="M 0.15625 -12.09375 L 3.5625 -12.09375 L 6.453125 -3.5 L 9.28125 -12.09375 L 12.59375 -12.09375 L 8.328125 -0.453125 L 7.5625 1.65625 C 7.28125 2.351562 7.007812 2.890625 6.75 3.265625 C 6.5 3.640625 6.207031 3.941406 5.875 4.171875 C 5.550781 4.398438 5.144531 4.578125 4.65625 4.703125 C 4.175781 4.835938 3.632812 4.90625 3.03125 4.90625 C 2.414062 4.90625 1.8125 4.84375 1.21875 4.71875 L 0.9375 2.203125 C 1.4375 2.304688 1.882812 2.359375 2.28125 2.359375 C 3.03125 2.359375 3.582031 2.140625 3.9375 1.703125 C 4.289062 1.265625 4.566406 0.707031 4.765625 0.03125 Z M 0.15625 -12.09375 "/></g></g></g><g fill="#000000" fill-opacity="1"><g transform="translate(30.235316, 22.993215)"><g><path d="M 12.671875 0 L 9.46875 0 L 9.46875 -6.171875 C 9.46875 -7.472656 9.398438 -8.316406 9.265625 -8.703125 C 9.128906 -9.085938 8.90625 -9.382812 8.59375 -9.59375 C 8.289062 -9.8125 7.921875 -9.921875 7.484375 -9.921875 C 6.929688 -9.921875 6.4375 -9.765625 6 -9.453125 C 5.5625 -9.148438 5.257812 -8.75 5.09375 -8.25 C 4.925781 -7.75 4.84375 -6.820312 4.84375 -5.46875 L 4.84375 0 L 1.65625 0 L 1.65625 -12.09375 L 4.625 -12.09375 L 4.625 -10.3125 C 5.675781 -11.675781 7.003906 -12.359375 8.609375 -12.359375 C 9.316406 -12.359375 9.960938 -12.226562 10.546875 -11.96875 C 11.128906 -11.71875 11.566406 -11.394531 11.859375 -11 C 12.160156 -10.613281 12.367188 -10.164062 12.484375 -9.65625 C 12.609375 -9.15625 12.671875 -8.441406 12.671875 -7.515625 Z M 12.671875 0 "/></g></g></g><g fill="#000000" fill-opacity="1"><g transform="translate(45.170021, 22.993215)"><g><path d="M 12.21875 -8.515625 L 9.0625 -7.953125 C 8.957031 -8.578125 8.71875 -9.046875 8.34375 -9.359375 C 7.96875 -9.679688 7.476562 -9.84375 6.875 -9.84375 C 6.082031 -9.84375 5.445312 -9.566406 4.96875 -9.015625 C 4.488281 -8.472656 4.25 -7.554688 4.25 -6.265625 C 4.25 -4.828125 4.488281 -3.8125 4.96875 -3.21875 C 5.457031 -2.625 6.109375 -2.328125 6.921875 -2.328125 C 7.523438 -2.328125 8.019531 -2.5 8.40625 -2.84375 C 8.800781 -3.195312 9.078125 -3.796875 9.234375 -4.640625 L 12.375 -4.09375 C 12.050781 -2.65625 11.425781 -1.566406 10.5 -0.828125 C 9.570312 -0.0976562 8.328125 0.265625 6.765625 0.265625 C 5.003906 0.265625 3.597656 -0.289062 2.546875 -1.40625 C 1.492188 -2.519531 0.96875 -4.0625 0.96875 -6.03125 C 0.96875 -8.03125 1.492188 -9.582031 2.546875 -10.6875 C 3.597656 -11.800781 5.023438 -12.359375 6.828125 -12.359375 C 8.296875 -12.359375 9.460938 -12.039062 10.328125 -11.40625 C 11.203125 -10.78125 11.832031 -9.816406 12.21875 -8.515625 Z M 12.21875 -8.515625 "/></g></g></g><g fill="#000000" fill-opacity="1"><g transform="translate(58.830272, 22.993215)"><g><path d="M 0.84375 -5.4375 L 4.125 -5.75 C 4.320312 -4.644531 4.71875 -3.832031 5.3125 -3.3125 C 5.914062 -2.800781 6.734375 -2.546875 7.765625 -2.546875 C 8.847656 -2.546875 9.664062 -2.773438 10.21875 -3.234375 C 10.769531 -3.691406 11.046875 -4.226562 11.046875 -4.84375 C 11.046875 -5.238281 10.925781 -5.570312 10.6875 -5.84375 C 10.457031 -6.125 10.054688 -6.367188 9.484375 -6.578125 C 9.085938 -6.710938 8.1875 -6.957031 6.78125 -7.3125 C 4.976562 -7.757812 3.710938 -8.304688 2.984375 -8.953125 C 1.960938 -9.867188 1.453125 -10.988281 1.453125 -12.3125 C 1.453125 -13.164062 1.691406 -13.960938 2.171875 -14.703125 C 2.648438 -15.441406 3.34375 -16.003906 4.25 -16.390625 C 5.15625 -16.773438 6.25 -16.96875 7.53125 -16.96875 C 9.625 -16.96875 11.203125 -16.507812 12.265625 -15.59375 C 13.328125 -14.675781 13.882812 -13.453125 13.9375 -11.921875 L 10.5625 -11.765625 C 10.414062 -12.628906 10.101562 -13.25 9.625 -13.625 C 9.15625 -14 8.445312 -14.1875 7.5 -14.1875 C 6.519531 -14.1875 5.753906 -13.984375 5.203125 -13.578125 C 4.847656 -13.316406 4.671875 -12.972656 4.671875 -12.546875 C 4.671875 -12.148438 4.835938 -11.8125 5.171875 -11.53125 C 5.597656 -11.175781 6.628906 -10.800781 8.265625 -10.40625 C 9.898438 -10.019531 11.109375 -9.617188 11.890625 -9.203125 C 12.679688 -8.796875 13.296875 -8.234375 13.734375 -7.515625 C 14.179688 -6.796875 14.40625 -5.910156 14.40625 -4.859375 C 14.40625 -3.898438 14.140625 -3.003906 13.609375 -2.171875 C 13.078125 -1.335938 12.328125 -0.71875 11.359375 -0.3125 C 10.390625 0.09375 9.179688 0.296875 7.734375 0.296875 C 5.617188 0.296875 3.992188 -0.1875 2.859375 -1.15625 C 1.734375 -2.132812 1.0625 -3.5625 0.84375 -5.4375 Z M 0.84375 -5.4375 "/></g></g></g><g fill="#000000" fill-opacity="1"><g transform="translate(75.073553, 22.993215)"><g><path d="M 1.5625 0 L 1.5625 -16.6875 L 4.765625 -16.6875 L 4.765625 -7.828125 L 8.5 -12.09375 L 12.4375 -12.09375 L 8.3125 -7.671875 L 12.734375 0 L 9.28125 0 L 6.25 -5.4375 L 4.765625 -3.875 L 4.765625 0 Z M 1.5625 0 "/></g></g></g><g fill="#000000" fill-opacity="1"><g transform="translate(88.733804, 22.993215)"><g><path d="M 1.671875 -13.734375 L 1.671875 -16.6875 L 4.875 -16.6875 L 4.875 -13.734375 Z M 1.671875 0 L 1.671875 -12.09375 L 4.875 -12.09375 L 4.875 0 Z M 1.671875 0 "/></g></g></g><g fill="#000000" fill-opacity="1"><g transform="translate(95.907996, 22.993215)"><g><path d="M 1.671875 0 L 1.671875 -16.6875 L 4.875 -16.6875 L 4.875 0 Z M 1.671875 0 "/></g></g></g><g fill="#000000" fill-opacity="1"><g transform="translate(103.082188, 22.993215)"><g><path d="M 1.671875 0 L 1.671875 -16.6875 L 4.875 -16.6875 L 4.875 0 Z M 1.671875 0 "/></g></g></g></g></g></svg>